<svg width="289" height="272" viewBox="0 0 289 272" fill="none" xmlns="http://www.w3.org/2000/svg">
<path d="M1.15234 116.813C29.6749 26.9677 103.5 -18.6261 176 9.99962C264.981 45.1324 251.5 186.125 218 157.625C179.404 124.789 361.5 55.4997 252.5 271" stroke="#664EFF" stroke-width="2" stroke-linecap="round" stroke-linejoin="round" stroke-dasharray="4 4"/>
<path xmlns="http://www.w3.org/2000/svg" fill-rule="evenodd" clip-rule="evenodd" d="M427.793 124.144C428.292 123.906 428.504 123.31 428.267 122.811C428.029 122.312 427.433 122.1 426.934 122.338L424.225 123.627L422.936 120.918C422.699 120.419 422.102 120.207 421.604 120.444C421.105 120.682 420.893 121.278 421.13 121.777L422.839 125.368C422.842 125.375 422.845 125.382 422.849 125.389C422.972 125.649 423.194 125.831 423.448 125.912C423.682 125.987 423.943 125.976 424.182 125.862C424.188 125.859 424.195 125.856 424.202 125.852L427.793 124.144Z" fill="#664EFF"/>
</svg>
