<?xml version="1.0" encoding="utf-8"?><svg xmlns="http://www.w3.org/2000/svg" xmlns:xlink="http://www.w3.org/1999/xlink"><symbol viewBox="0 0 16 14" id="arrow" xmlns="http://www.w3.org/2000/svg"><path d="M8.427 12.802a1.458 1.458 0 0 1 0-2.063l3.094-3.093c.956-.957.956-1.107 0-2.063L8.427 2.49A1.458 1.458 0 1 1 10.489.427l3.094 3.094c2.728 2.728 2.728 3.459 0 6.187l-3.094 3.094a1.458 1.458 0 0 1-2.062 0z"/><rect y="5" width="13" height="3" rx="1.5"/></symbol><symbol viewBox="0 0 38 38" id="back" xmlns="http://www.w3.org/2000/svg"><rect x=".75" y=".75" width="36.5" height="36.5" rx="9.25"/><path d="M21.829 16.172a1 1 0 0 0-1.414 0L19 17.586l-1.415-1.414a1 1 0 1 0-1.414 1.414L17.586 19l-1.414 1.414a1 1 0 1 0 1.414 1.414l1.415-1.414 1.414 1.414a1 1 0 1 0 1.414-1.414L20.415 19l1.414-1.414a1 1 0 0 0 0-1.414z"/></symbol><symbol viewBox="0 0 10 17" id="fb" xmlns="http://www.w3.org/2000/svg"><path d="M3.334 5.421H.667v2.667h2.667v8h4v-8H9.76L10 5.42H7.334V4.31c0-.638.128-.89.744-.89H10V.088H6.795c-2.397 0-3.461 1.056-3.461 3.077v2.256z"/></symbol><symbol viewBox="0 0 43 42" id="ic_pencil" xmlns="http://www.w3.org/2000/svg"><path d="M33.566 21.247V9.24a3.43 3.43 0 0 0-3.43-3.43H9.55a3.43 3.43 0 0 0-3.43 3.43v20.586a3.43 3.43 0 0 0 3.43 3.43h12.008"/><path d="M36.363 33.628l-2.426 2.425a1.713 1.713 0 0 1-2.426 0L18.593 23.136a1.711 1.711 0 0 1-.503-1.213V17.78h4.14c.456 0 .893.18 1.214.502l12.919 12.92c.67.668.67 1.754 0 2.425zm-3.073-5.493l-4.854 4.837"/></symbol><symbol viewBox="0 0 9 15" id="icon-back" xmlns="http://www.w3.org/2000/svg"><path d="M8.179 13.712a1.458 1.458 0 0 0 0-2.063L5.085 8.556c-.956-.957-.956-1.106 0-2.063L8.18 3.4a1.458 1.458 0 0 0-2.062-2.063L3.023 4.431c-2.728 2.728-2.728 3.46 0 6.187l3.094 3.094a1.458 1.458 0 0 0 2.062 0z"/></symbol><symbol viewBox="0 0 53 53" fill="none" id="icon-crypt" xmlns="http://www.w3.org/2000/svg"><rect width="53" height="53" rx="15" fill="#664EFF"/><path opacity=".5" d="M18.73 16h16v20a2 2 0 0 1-2 2h-12a2 2 0 0 1-2-2V16z" fill="#fff"/><path d="M19.73 16v20a2 2 0 0 0 2 2h10a2 2 0 0 0 2-2V16" stroke="#fff" stroke-width="2"/><circle cx="21.23" cy="36.5" r="1.5" fill="#fff"/><circle cx="32.23" cy="36.5" r="1.5" fill="#fff"/><path d="M35.73 15h-18v3h2v2h-2a2 2 0 0 1-2-2v-3a2 2 0 0 1 2-2h18a2 2 0 0 1 2 2v3a2 2 0 0 1-2 2h-2v-2h2v-3z" fill="#fff"/><path d="M24.049 24.81a1.518 1.518 0 0 1 1.685-.36l.851.354a.376.376 0 0 0 .29 0l.852-.354c.58-.242 1.243-.1 1.685.36l.194.202c.58.604.613 1.572.074 2.217l-2.36 2.825a.761.761 0 0 1-1.18 0l-2.36-2.825a1.675 1.675 0 0 1 .075-2.217l.194-.202z" fill="#664EFF"/></symbol><symbol viewBox="0 0 53 53" fill="none" id="icon-like" xmlns="http://www.w3.org/2000/svg"><rect width="53" height="53" rx="15" fill="#664EFF"/><path d="M16.013 18.107a2.726 2.726 0 0 1 2.24-2.136l1.635-.258a.677.677 0 0 0 .444-.273l.97-1.343a2.726 2.726 0 0 1 2.916-1.034l.487.127c1.456.378 2.416 1.83 2.198 3.322l-.954 6.541a1.367 1.367 0 0 1-1.804 1.109l-6.268-2.102a3.009 3.009 0 0 1-1.971-3.462l.107-.491z" fill="#fff" opacity=".5"/><path d="M20.191 29.75c1.16-1.207 2.9-1.579 4.424-.945l2.235.93a.989.989 0 0 0 .761 0l2.235-.93c1.524-.634 3.263-.262 4.424.945l.51.53c1.523 1.586 1.608 4.128.194 5.82l-6.196 7.416a1.999 1.999 0 0 1-3.095 0L19.487 36.1c-1.414-1.692-1.329-4.234.195-5.82l.51-.53z" fill="#fff"/><path d="M31.054 7.291a2.272 2.272 0 0 1 2.513.576l.931 1.018a.563.563 0 0 0 .394.183l1.379.057c.94.039 1.75.65 2.058 1.552l.136.397a2.506 2.506 0 0 1-1.299 3.054l-4.985 2.342a1.14 1.14 0 0 1-1.6-.744l-1.418-5.323a2.506 2.506 0 0 1 1.5-2.96l.391-.152z" fill="#fff" opacity=".2"/></symbol><symbol viewBox="0 0 8 15" id="icon-next" xmlns="http://www.w3.org/2000/svg"><path d="M.63 13.587a1.458 1.458 0 0 1 0-2.062L3.722 8.43c.956-.956.956-1.106 0-2.062L.629 3.275a1.458 1.458 0 0 1 2.063-2.062l3.093 3.093c2.728 2.728 2.728 3.46 0 6.188l-3.093 3.093a1.459 1.459 0 0 1-2.063 0z"/></symbol><symbol viewBox="0 0 53 53" fill="none" id="icon-reward" xmlns="http://www.w3.org/2000/svg"><rect width="53" height="53" rx="15" fill="#664EFF"/><g opacity=".5"><circle cx="26.5" cy="31.75" r="11.5" fill="#fff"/><path d="M22.095 28.152a2.494 2.494 0 0 1 2.768-.592l1.399.582a.618.618 0 0 0 .476 0l1.4-.582a2.494 2.494 0 0 1 2.768.592l.319.332a2.751 2.751 0 0 1 .121 3.642l-3.877 4.641a1.25 1.25 0 0 1-1.937 0l-3.878-4.641a2.751 2.751 0 0 1 .122-3.642l.319-.332z" fill="#664EFF"/></g><circle cx="26.5" cy="21.25" r="11.5" fill="#fff"/><path d="M22.095 17.652a2.494 2.494 0 0 1 2.768-.592l1.399.582a.618.618 0 0 0 .476 0l1.4-.582a2.494 2.494 0 0 1 2.768.592l.319.332a2.751 2.751 0 0 1 .121 3.642l-3.877 4.641a1.25 1.25 0 0 1-1.937 0l-3.878-4.641a2.751 2.751 0 0 1 .122-3.642l.319-.332z" fill="#664EFF"/></symbol><symbol viewBox="0 0 16 17" id="in" xmlns="http://www.w3.org/2000/svg"><path fill-rule="evenodd" clip-rule="evenodd" d="M8 .088c-2.173 0-2.444.01-3.299.05C1.795.27.181 1.882.048 4.788.009 5.644 0 5.916 0 8.088c0 2.173.01 2.445.048 3.299.133 2.905 1.747 4.52 4.653 4.653.855.039 1.126.048 3.299.048s2.445-.01 3.3-.048c2.901-.133 4.521-1.745 4.652-4.653.039-.854.048-1.126.048-3.3 0-2.171-.01-2.443-.048-3.298C15.822 1.887 14.207.27 11.3.137c-.855-.04-1.127-.05-3.3-.05zm-4.108 8a4.108 4.108 0 1 1 8.216 0 4.108 4.108 0 0 1-8.216 0zM8 10.755A2.666 2.666 0 1 1 8 5.42a2.668 2.668 0 1 1 0 5.334zm3.31-6.936a.96.96 0 1 1 1.92 0 .96.96 0 0 1-1.92 0z"/></symbol><symbol viewBox="0 0 17 14" id="tw" xmlns="http://www.w3.org/2000/svg"><path d="M16.667 1.792a6.57 6.57 0 0 1-1.885.517A3.297 3.297 0 0 0 16.226.493a6.57 6.57 0 0 1-2.086.796 3.286 3.286 0 0 0-5.593 2.993A9.323 9.323 0 0 1 1.782.854a3.287 3.287 0 0 0 1.016 4.383 3.277 3.277 0 0 1-1.486-.41c-.036 1.52 1.055 2.942 2.634 3.26a3.29 3.29 0 0 1-1.483.055A3.287 3.287 0 0 0 5.53 10.42a6.607 6.607 0 0 1-4.863 1.361 9.284 9.284 0 0 0 5.03 1.475c6.097 0 9.54-5.148 9.331-9.765a6.617 6.617 0 0 0 1.639-1.7z"/></symbol></svg>